<svg width="443" height="736" viewBox="0 0 443 736" fill="none" xmlns="http://www.w3.org/2000/svg">
<g clip-path="url(#clip0_77_2)">
<path d="M383.042 147.5V490.833C383.042 577.358 312.9 647.5 226.375 647.5C139.851 647.5 69.709 577.358 69.709 490.833V217.5C69.709 144.887 18.298 82.4361 -52.963 68.4863L-58 67.5002L-88.277 62.4541C-108 60.182 -128.086 57.7285 -148.126 58.1821L-173.5 58.1821C-199.163 58.763 -281.713 64.8266 -306.5 71.5L-287.5 70.5" stroke="black" stroke-width="120" stroke-miterlimit="1.08239" stroke-linejoin="round"/>
<path d="M382.5 151C382.5 117.863 377.863 88.3207 411 88.3207L538.87 87.5H690.65V426.961C690.65 550.346 593.59 651.905 470.33 657.5" stroke="black" stroke-width="119"/>
<mask id="path-3-inside-1_77_2" fill="white">
<path d="M-269.999 730.5C-327.999 730.5 -379.999 718.5 -426 694.5C-471.333 669.833 -508.666 631.5 -538 579.5L-416.999 502.5C-399.666 537.167 -377.666 563.167 -350.999 580.5C-323.666 597.167 -294 605.5 -262 605.5C-230 605.5 -204.666 598.167 -185.999 583.5C-166.666 568.833 -156.999 549.5 -156.999 525.5C-156.999 503.5 -163.999 485.5 -178 471.5C-192 457.5 -210 446.5 -232 438.5C-253.333 429.833 -281.666 420.833 -317 411.5C-373 396.833 -416.666 373.167 -448 340.5C-478.666 307.833 -494 265.833 -494 214.5C-494 173.167 -483.666 136.833 -463 105.5C-442.333 73.4998 -413.333 48.833 -376 31.4997C-338.666 14.1664 -295.666 5.49974 -246.999 5.49974C-194.333 5.49974 -137.667 -2.50004 -101 19.5C-63.667 41.5 -77.332 37.8333 -49.999 80.5C-49.999 80.5 17.5 185.5 -5 158C-27.5 130.5 -64 130.5 -64 130.5C-64 130.5 -121 130.5 -153.5 130.5C-198 130.5 -228.666 130.5 -254 130.5C-282.666 130.5 -306 137.5 -324 151.5C-342 165.5 -350.999 184.167 -350.999 207.5C-350.999 230.833 -342 248.5 -324 260.5C-306 271.833 -277.999 283.5 -239.999 295.5C-193.333 310.167 -155.999 323.833 -127.999 336.5C-99.999 349.167 -73.999 370.5 -49.999 400.5C-25.999 429.833 -13.999 468.833 -13.999 517.5C-13.999 559.5 -24.333 596.833 -44.999 629.5C-65.666 661.5 -95.333 686.5 -133.999 704.5C-172.666 721.833 -218 730.5 -269.999 730.5Z"/>
</mask>
<path d="M-269.999 730.5C-327.999 730.5 -379.999 718.5 -426 694.5C-471.333 669.833 -508.666 631.5 -538 579.5L-416.999 502.5C-399.666 537.167 -377.666 563.167 -350.999 580.5C-323.666 597.167 -294 605.5 -262 605.5C-230 605.5 -204.666 598.167 -185.999 583.5C-166.666 568.833 -156.999 549.5 -156.999 525.5C-156.999 503.5 -163.999 485.5 -178 471.5C-192 457.5 -210 446.5 -232 438.5C-253.333 429.833 -281.666 420.833 -317 411.5C-373 396.833 -416.666 373.167 -448 340.5C-478.666 307.833 -494 265.833 -494 214.5C-494 173.167 -483.666 136.833 -463 105.5C-442.333 73.4998 -413.333 48.833 -376 31.4997C-338.666 14.1664 -295.666 5.49974 -246.999 5.49974C-194.333 5.49974 -137.667 -2.50004 -101 19.5C-63.667 41.5 -77.332 37.8333 -49.999 80.5C-49.999 80.5 17.5 185.5 -5 158C-27.5 130.5 -64 130.5 -64 130.5C-64 130.5 -121 130.5 -153.5 130.5C-198 130.5 -228.666 130.5 -254 130.5C-282.666 130.5 -306 137.5 -324 151.5C-342 165.5 -350.999 184.167 -350.999 207.5C-350.999 230.833 -342 248.5 -324 260.5C-306 271.833 -277.999 283.5 -239.999 295.5C-193.333 310.167 -155.999 323.833 -127.999 336.5C-99.999 349.167 -73.999 370.5 -49.999 400.5C-25.999 429.833 -13.999 468.833 -13.999 517.5C-13.999 559.5 -24.333 596.833 -44.999 629.5C-65.666 661.5 -95.333 686.5 -133.999 704.5C-172.666 721.833 -218 730.5 -269.999 730.5Z" fill="black"/>
<path d="M-269.999 731C-269.999 730.666 -269.999 730.333 -269.999 730C-323.753 730.133 -378.033 719.14 -425.769 694.056C-426.446 693.688 -427.129 693.312 -427.811 692.933C-474.711 667.094 -511.554 625.714 -537.564 579.254L-537.731 579.922C-497.398 554.255 -457.064 528.588 -416.731 502.922L-417.446 502.723C-402.11 533.528 -380.443 562.054 -351.271 580.919L-351.259 580.927C-324.607 597.368 -293.316 606.161 -262 606C-235.291 606.024 -207.159 600.818 -185.69 583.893C-167.303 570.638 -155.936 548.211 -156.499 525.5C-156.241 505.617 -163.193 485.171 -177.646 471.146C-192.767 455.989 -211.825 445.283 -231.829 438.03L-231.812 438.037C-259.458 426.934 -288.124 418.675 -316.872 411.016C-365.268 398.379 -412.738 376.626 -447.639 340.154C-479.593 306.951 -493.962 260.074 -493.5 214.5C-493.692 176.308 -483.884 137.666 -462.582 105.775C-441.817 73.2403 -410.762 47.9878 -375.789 31.9532C-335.69 13.2778 -291.078 5.95978 -246.999 5.99974C-198.157 6.88884 -145.717 -4.05237 -101.257 19.9287C-89.8608 27.0431 -76.8073 33.1446 -70.4656 45.3313C-64.1694 57.2969 -57.8906 69.3216 -50.42 80.7697C-41.2665 95.0453 -32.0434 109.596 -23.0399 124.084C-18.5489 131.32 -14.0289 138.669 -9.70054 145.953C-7.5146 149.643 -5.33723 153.356 -3.32097 157.089C-3.19917 157.315 -3.0857 157.528 -2.96771 157.751C-2.82918 158.013 -2.69688 158.266 -2.57101 158.509C-2.31276 159.009 -2.11502 159.401 -1.87545 159.895C-1.61034 160.444 -1.41146 160.879 -1.23272 161.317C-1.11087 161.616 -1.0222 161.866 -0.969405 162.053C-0.956201 162.1 -0.945223 162.143 -0.936464 162.181C-0.926216 162.222 -0.908067 162.327 -0.908511 162.352C-0.905078 162.386 -0.918386 162.379 -0.889038 162.307C-0.868542 162.236 -0.727212 162.106 -0.615675 162.097C-0.393714 162.096 -0.548388 162.103 -0.65009 162.012C-0.710189 161.97 -0.783891 161.914 -0.868398 161.843C-1.02986 161.71 -1.27621 161.478 -1.47728 161.275C-1.7701 160.98 -2.11701 160.608 -2.51811 160.157C-3.24618 159.335 -3.80648 158.667 -4.61302 157.683C-18.9735 140.066 -41.6638 131.019 -64 130C-79.9639 130 -95.9898 130 -111.967 130C-125.811 130 -139.674 130 -153.5 130C-187.02 130 -220.501 130 -254 130C-278.735 129.91 -304.505 135.54 -324.307 151.105C-341.811 164.058 -352.003 185.812 -351.499 207.5C-352.071 228.319 -342.215 249.729 -324.277 260.916L-324.266 260.923C-298.141 276.81 -269.06 286.638 -240.15 295.977C-202.244 307.974 -164.478 320.713 -128.205 336.955C-97.2476 350.944 -71.4923 374.42 -50.3894 400.812C-23.6792 433.117 -14.357 476.234 -14.499 517.5C-14.3134 556.645 -24.246 596.154 -45.4216 629.232C-62.2188 655.411 -85.7546 676.951 -112.54 692.67C-119.567 696.819 -126.804 700.599 -134.21 704.046C-176.662 723.087 -223.651 730.005 -269.999 730C-269.999 730.333 -269.999 730.666 -269.999 731C-223.553 731.005 -176.423 724.075 -133.794 704.956C-126.354 701.492 -119.088 697.697 -112.031 693.531C-85.1327 677.746 -61.4665 656.092 -44.579 629.771C-23.2919 596.522 -13.3105 556.795 -13.499 517.5C-13.3563 476.103 -22.7074 432.726 -49.612 400.183C-70.7773 373.714 -96.6422 350.122 -127.793 336.044C-164.137 319.771 -201.922 307.027 -239.849 295.023C-268.72 285.7 -297.782 275.863 -323.734 260.077L-323.723 260.084C-341.397 249.036 -351.041 228.107 -350.499 207.5C-350.98 186.043 -340.983 164.71 -323.693 151.894C-304.122 136.509 -278.603 130.911 -254 131C-220.501 131 -187.02 131 -153.5 131C-139.674 131 -125.811 131 -111.967 131C-95.9898 131 -79.9639 131 -64 131C-42.0003 132.002 -19.5014 140.97 -5.38698 158.317C-4.57394 159.308 -4.00865 159.982 -3.26536 160.822C-2.85531 161.283 -2.4973 161.667 -2.1865 161.98C-1.97318 162.195 -1.70567 162.448 -1.50947 162.611C-1.40708 162.696 -1.31134 162.77 -1.21914 162.834C-1.05135 162.938 -0.827683 163.13 -0.44327 163.082C-0.239604 163.056 -0.0350607 162.872 0.0245527 162.714C0.0931005 162.553 0.0949236 162.424 0.0901247 162.3C0.0861793 162.188 0.0522479 162.015 0.0382312 161.958C0.0252154 161.901 0.0101127 161.843 -0.00697531 161.782C-0.0753811 161.54 -0.175577 161.262 -0.306456 160.94C-0.498073 160.471 -0.703659 160.022 -0.975237 159.459C-1.22036 158.954 -1.42114 158.557 -1.6827 158.05C-1.81016 157.803 -1.94392 157.548 -2.08379 157.283C-2.20292 157.058 -2.31739 156.844 -2.44016 156.615C-4.47111 152.855 -6.65092 149.139 -8.84062 145.443C-13.1751 138.148 -17.6973 130.796 -22.1904 123.557C-31.1979 109.062 -40.4217 94.5102 -49.5784 80.2296C-57.0408 68.7903 -63.2482 56.8984 -69.5968 44.8361C-76.1469 32.3178 -89.3709 26.1846 -100.746 19.0692C-145.791 -5.16948 -198.226 5.92375 -246.999 4.99974C-291.184 4.95976 -335.947 12.2948 -376.211 31.0462C-411.322 47.142 -442.553 72.5306 -463.42 105.228C-484.837 137.289 -494.695 176.157 -494.5 214.5C-494.97 260.242 -480.518 307.438 -448.365 340.842C-413.282 377.5 -365.631 399.316 -317.127 411.983C-288.402 419.635 -259.758 427.89 -232.188 438.963L-232.171 438.97C-212.267 446.186 -193.345 456.825 -178.354 471.853C-164.1 485.694 -157.252 505.798 -157.499 525.5C-156.961 547.961 -168.111 569.966 -186.301 583.101C-207.515 599.832 -235.411 605.026 -262 605C-293.147 605.158 -324.229 596.424 -350.739 580.073L-350.727 580.081C-379.707 561.34 -401.268 532.974 -416.552 502.276L-416.8 501.78L-417.267 502.078C-457.601 527.745 -497.934 553.411 -538.268 579.078L-538.668 579.332L-538.435 579.745C-512.361 626.322 -475.387 667.864 -428.297 693.807C-427.613 694.187 -426.927 694.565 -426.239 694.939C-378.335 720.111 -323.879 731.134 -269.999 731ZM-269.999 730V731V730Z" fill="black" mask="url(#path-3-inside-1_77_2)"/>
</g>
<defs>
<clipPath id="clip0_77_2">
<rect width="2380" height="736" fill="white" transform="translate(-558)"/>
</clipPath>
</defs>
</svg>
