<svg width="558" height="736" viewBox="0 0 558 736" fill="none" xmlns="http://www.w3.org/2000/svg">
<g clip-path="url(#clip0_77_2)">
<path d="M941.042 147.5V490.833C941.042 577.358 870.9 647.5 784.375 647.5C697.851 647.5 627.709 577.358 627.709 490.833V217.5C627.709 144.887 576.298 82.4361 505.037 68.4863L500 67.5002L469.723 62.4541C450 60.182 429.914 57.7285 409.874 58.1821L384.5 58.1821C358.837 58.763 276.287 64.8266 251.5 71.5L270.5 70.5" stroke="black" stroke-width="120" stroke-miterlimit="1.08239" stroke-linejoin="round"/>
<mask id="path-2-inside-1_77_2" fill="white">
<path d="M288.001 730.5C230.001 730.5 178.001 718.5 132 694.5C86.6672 669.833 49.3338 631.5 20.0005 579.5L141.001 502.5C158.334 537.167 180.334 563.167 207.001 580.5C234.334 597.167 264 605.5 296 605.5C328 605.5 353.334 598.167 372.001 583.5C391.334 568.833 401.001 549.5 401.001 525.5C401.001 503.5 394.001 485.5 380 471.5C366 457.5 348 446.5 326 438.5C304.667 429.833 276.334 420.833 241 411.5C185 396.833 141.334 373.167 110 340.5C79.3338 307.833 64.0005 265.833 64.0005 214.5C64.0005 173.167 74.3338 136.833 95.0005 105.5C115.667 73.4998 144.667 48.833 182 31.4997C219.334 14.1664 262.334 5.49974 311.001 5.49974C363.667 5.49974 420.333 -2.50004 457 19.5C494.333 41.5 480.668 37.8333 508.001 80.5C508.001 80.5 575.5 185.5 553 158C530.5 130.5 494 130.5 494 130.5C494 130.5 437 130.5 404.5 130.5C360 130.5 329.334 130.5 304 130.5C275.334 130.5 252 137.5 234 151.5C216 165.5 207.001 184.167 207.001 207.5C207.001 230.833 216 248.5 234 260.5C252 271.833 280.001 283.5 318.001 295.5C364.667 310.167 402.001 323.833 430.001 336.5C458.001 349.167 484.001 370.5 508.001 400.5C532.001 429.833 544.001 468.833 544.001 517.5C544.001 559.5 533.667 596.833 513.001 629.5C492.334 661.5 462.667 686.5 424.001 704.5C385.334 721.833 340 730.5 288.001 730.5Z"/>
</mask>
<path d="M288.001 730.5C230.001 730.5 178.001 718.5 132 694.5C86.6672 669.833 49.3338 631.5 20.0005 579.5L141.001 502.5C158.334 537.167 180.334 563.167 207.001 580.5C234.334 597.167 264 605.5 296 605.5C328 605.5 353.334 598.167 372.001 583.5C391.334 568.833 401.001 549.5 401.001 525.5C401.001 503.5 394.001 485.5 380 471.5C366 457.5 348 446.5 326 438.5C304.667 429.833 276.334 420.833 241 411.5C185 396.833 141.334 373.167 110 340.5C79.3338 307.833 64.0005 265.833 64.0005 214.5C64.0005 173.167 74.3338 136.833 95.0005 105.5C115.667 73.4998 144.667 48.833 182 31.4997C219.334 14.1664 262.334 5.49974 311.001 5.49974C363.667 5.49974 420.333 -2.50004 457 19.5C494.333 41.5 480.668 37.8333 508.001 80.5C508.001 80.5 575.5 185.5 553 158C530.5 130.5 494 130.5 494 130.5C494 130.5 437 130.5 404.5 130.5C360 130.5 329.334 130.5 304 130.5C275.334 130.5 252 137.5 234 151.5C216 165.5 207.001 184.167 207.001 207.5C207.001 230.833 216 248.5 234 260.5C252 271.833 280.001 283.5 318.001 295.5C364.667 310.167 402.001 323.833 430.001 336.5C458.001 349.167 484.001 370.5 508.001 400.5C532.001 429.833 544.001 468.833 544.001 517.5C544.001 559.5 533.667 596.833 513.001 629.5C492.334 661.5 462.667 686.5 424.001 704.5C385.334 721.833 340 730.5 288.001 730.5Z" fill="black"/>
<path d="M288.001 731C288.001 730.666 288.001 730.333 288.001 730C234.247 730.133 179.967 719.14 132.231 694.056C131.554 693.688 130.871 693.312 130.189 692.933C83.289 667.094 46.4455 625.714 20.436 579.254L20.2689 579.922C60.6024 554.255 100.936 528.588 141.269 502.922L140.554 502.723C155.89 533.528 177.557 562.054 206.729 580.919L206.741 580.927C233.393 597.368 264.684 606.161 296 606C322.709 606.024 350.841 600.818 372.31 583.893C390.697 570.638 402.064 548.211 401.501 525.5C401.759 505.617 394.807 485.171 380.354 471.146C365.233 455.989 346.175 445.283 326.171 438.03L326.188 438.037C298.542 426.934 269.876 418.675 241.128 411.016C192.732 398.379 145.262 376.626 110.361 340.154C78.4073 306.951 64.0379 260.074 64.5005 214.5C64.3081 176.308 74.1158 137.666 95.4179 105.775C116.183 73.2403 147.238 47.9878 182.211 31.9532C222.31 13.2778 266.922 5.95978 311.001 5.99974C359.843 6.88884 412.283 -4.05237 456.743 19.9287C468.139 27.0431 481.193 33.1446 487.534 45.3313C493.831 57.2969 500.109 69.3216 507.58 80.7697C516.733 95.0453 525.957 109.596 534.96 124.084C539.451 131.32 543.971 138.669 548.299 145.953C550.485 149.643 552.663 153.356 554.679 157.089C554.801 157.315 554.914 157.528 555.032 157.751C555.171 158.013 555.303 158.266 555.429 158.509C555.687 159.009 555.885 159.401 556.125 159.895C556.39 160.444 556.589 160.879 556.767 161.317C556.889 161.616 556.978 161.866 557.031 162.053C557.044 162.1 557.055 162.143 557.064 162.181C557.074 162.222 557.092 162.327 557.091 162.352C557.095 162.386 557.082 162.379 557.111 162.307C557.131 162.236 557.273 162.106 557.384 162.097C557.606 162.096 557.452 162.103 557.35 162.012C557.29 161.97 557.216 161.914 557.132 161.843C556.97 161.71 556.724 161.478 556.523 161.275C556.23 160.98 555.883 160.608 555.482 160.157C554.754 159.335 554.194 158.667 553.387 157.683C539.027 140.066 516.336 131.019 494 130C478.036 130 462.01 130 446.033 130C432.189 130 418.326 130 404.5 130C370.98 130 337.499 130 304 130C279.265 129.91 253.495 135.54 233.693 151.105C216.189 164.058 205.997 185.812 206.501 207.5C205.929 228.319 215.785 249.729 233.723 260.916L233.734 260.923C259.859 276.81 288.94 286.638 317.85 295.977C355.756 307.974 393.522 320.713 429.795 336.955C460.752 350.944 486.508 374.42 507.611 400.812C534.321 433.117 543.643 476.234 543.501 517.5C543.687 556.645 533.754 596.154 512.578 629.232C495.781 655.411 472.245 676.951 445.46 692.67C438.433 696.819 431.196 700.599 423.79 704.046C381.338 723.087 334.349 730.005 288.001 730C288.001 730.333 288.001 730.666 288.001 731C334.447 731.005 381.577 724.075 424.206 704.956C431.646 701.492 438.912 697.697 445.969 693.531C472.867 677.746 496.533 656.092 513.421 629.771C534.708 596.522 544.689 556.795 544.501 517.5C544.644 476.103 535.293 432.726 508.388 400.183C487.223 373.714 461.358 350.122 430.207 336.044C393.863 319.771 356.078 307.027 318.151 295.023C289.28 285.7 260.218 275.863 234.266 260.077L234.277 260.084C216.603 249.036 206.959 228.107 207.501 207.5C207.02 186.043 217.017 164.71 234.307 151.894C253.878 136.509 279.397 130.911 304 131C337.499 131 370.98 131 404.5 131C418.326 131 432.189 131 446.033 131C462.01 131 478.036 131 494 131C516 132.002 538.499 140.97 552.613 158.317C553.426 159.308 553.991 159.982 554.735 160.822C555.145 161.283 555.503 161.667 555.814 161.98C556.027 162.195 556.294 162.448 556.491 162.611C556.593 162.696 556.689 162.77 556.781 162.834C556.949 162.938 557.172 163.13 557.557 163.082C557.76 163.056 557.965 162.872 558.025 162.714C558.093 162.553 558.095 162.424 558.09 162.3C558.086 162.188 558.052 162.015 558.038 161.958C558.025 161.901 558.01 161.843 557.993 161.782C557.925 161.54 557.824 161.262 557.694 160.94C557.502 160.471 557.296 160.022 557.025 159.459C556.78 158.954 556.579 158.557 556.317 158.05C556.19 157.803 556.056 157.548 555.916 157.283C555.797 157.058 555.683 156.844 555.56 156.615C553.529 152.855 551.349 149.139 549.159 145.443C544.825 138.148 540.303 130.796 535.81 123.557C526.802 109.062 517.578 94.5102 508.422 80.2296C500.959 68.7903 494.752 56.8984 488.403 44.8361C481.853 32.3178 468.629 26.1846 457.254 19.0692C412.209 -5.16948 359.774 5.92375 311.001 4.99974C266.816 4.95976 222.053 12.2948 181.789 31.0462C146.678 47.142 115.447 72.5306 94.5805 105.228C73.1628 137.289 63.305 176.157 63.5005 214.5C63.0298 260.242 77.4817 307.438 109.635 340.842C144.718 377.5 192.369 399.316 240.873 411.983C269.598 419.635 298.242 427.89 325.812 438.963L325.829 438.97C345.733 446.186 364.655 456.825 379.646 471.853C393.9 485.694 400.748 505.798 400.501 525.5C401.039 547.961 389.889 569.966 371.699 583.101C350.485 599.832 322.589 605.026 296 605C264.853 605.158 233.771 596.424 207.261 580.073L207.273 580.081C178.293 561.34 156.732 532.974 141.448 502.276L141.2 501.78L140.733 502.078C100.399 527.745 60.0656 553.411 19.7321 579.078L19.3321 579.332L19.565 579.745C45.6385 626.322 82.613 667.864 129.703 693.807C130.387 694.187 131.073 694.565 131.761 694.939C179.665 720.111 234.121 731.134 288.001 731ZM288.001 730V731V730Z" fill="black" mask="url(#path-2-inside-1_77_2)"/>
</g>
<defs>
<clipPath id="clip0_77_2">
<rect width="2380" height="736" fill="white"/>
</clipPath>
</defs>
</svg>
