<svg width="437" height="736" viewBox="0 0 437 736" fill="none" xmlns="http://www.w3.org/2000/svg">
<g clip-path="url(#clip0_77_2)">
<path d="M-59.958 147.5V490.833C-59.958 577.358 -130.1 647.5 -216.625 647.5C-303.149 647.5 -373.291 577.358 -373.291 490.833V217.5C-373.291 144.887 -424.702 82.4361 -495.963 68.4863L-501 67.5002L-531.277 62.4541C-551 60.182 -571.086 57.7285 -591.126 58.1821L-616.5 58.1821C-642.163 58.763 -724.713 64.8266 -749.5 71.5L-730.5 70.5" stroke="black" stroke-width="120" stroke-miterlimit="1.08239" stroke-linejoin="round"/>
<path d="M-60.4999 151C-60.4999 117.863 -65.137 88.3207 -32 88.3207L95.8701 87.5H247.65V426.961C247.65 550.346 150.59 651.905 27.33 657.5" stroke="black" stroke-width="119"/>
<path d="M407.29 32.5C416.4 32.5001 423.79 39.8902 423.79 49.0059C423.79 100.641 381.93 142.5 330.3 142.5H296.71V32.5H407.29Z" fill="black"/>
<path d="M407.29 32.5C416.4 32.5001 423.79 39.8902 423.79 49.0059C423.79 100.641 381.93 142.5 330.3 142.5H296.71V32.5H407.29Z" fill="black"/>
<path d="M407.29 32.5C416.4 32.5001 423.79 39.8902 423.79 49.0059C423.79 100.641 381.93 142.5 330.3 142.5H296.71V32.5H407.29Z" stroke="black" stroke-width="10"/>
</g>
<defs>
<clipPath id="clip0_77_2">
<rect width="2380" height="736" fill="white" transform="translate(-1001)"/>
</clipPath>
</defs>
</svg>
