<svg width="353" height="736" viewBox="0 0 353 736" fill="none" xmlns="http://www.w3.org/2000/svg">
<g clip-path="url(#clip0_77_2)">
<path d="M189.81 717.5V87.5H341.58H683.04C716.18 87.5 743.04 114.363 743.04 147.5" stroke="black" stroke-width="120"/>
<path d="M22.5199 32.5C17.6299 32.5 13.6699 36.4651 13.6699 41.3564C13.6699 97.2162 58.9499 142.5 114.81 142.5H140.75V32.5H22.5199Z" fill="black"/>
<path d="M22.5199 32.5C17.6299 32.5 13.6699 36.4651 13.6699 41.3564C13.6699 97.2162 58.9499 142.5 114.81 142.5H140.75V32.5H22.5199Z" fill="black"/>
<path d="M22.5199 32.5C17.6299 32.5 13.6699 36.4651 13.6699 41.3564C13.6699 97.2162 58.9499 142.5 114.81 142.5H140.75V32.5H22.5199Z" stroke="black" stroke-width="10"/>
</g>
<defs>
<clipPath id="clip0_77_2">
<rect width="2380" height="736" fill="white" transform="translate(-1568)"/>
</clipPath>
</defs>
</svg>
