<svg width="130" height="736" viewBox="0 0 130 736" fill="none" xmlns="http://www.w3.org/2000/svg">
<g clip-path="url(#clip0_77_2)">
<path d="M16.3799 32.5088C70.4599 33.2248 114.08 77.291 114.08 131.546V133.181C114.08 138.328 109.91 142.5 104.76 142.5C55.9499 142.5 16.3799 102.927 16.3799 54.1113V32.5088Z" fill="black"/>
<path d="M16.3799 32.5088C70.4599 33.2248 114.08 77.291 114.08 131.546V133.181C114.08 138.328 109.91 142.5 104.76 142.5C55.9499 142.5 16.3799 102.927 16.3799 54.1113V32.5088Z" stroke="black" stroke-width="10"/>
<path d="M115 142C105.17 117.833 72.3 62.8 19.5 36C41.5 49.3333 91.4 89.2 115 142Z" fill="#D9D9D9"/>
<path d="M43 105.195C50.01 101.485 68.4099 95.0799 85.9399 99.1441C78.2099 97.9555 58.81 97.5015 43 105.195Z" fill="#D9D9D9"/>
<path d="M21 85.586C28.98 81.3716 49.94 74.106 69.9 78.7583C61.1 77.3939 39.01 76.8493 21 85.586Z" fill="#D9D9D9"/>
<path d="M16.2803 66.5987C22.0103 63.4804 37.0803 58.0378 51.5403 61.2135C45.1703 60.3094 29.2003 60.1208 16.2803 66.5987Z" fill="#D9D9D9"/>
<path d="M17 51.9806C20.38 50.3036 29.2 47.4862 37.48 49.6331C33.82 48.9732 24.61 48.5189 17 51.9806Z" fill="#D9D9D9"/>
<path d="M69 127.033C75.04 124.565 90.62 120.816 104.64 125.565C98.41 123.965 82.56 122.019 69 127.033Z" fill="#D9D9D9"/>
<path d="M109.83 94.5C107.19 96.1203 101.23 101.432 98.5303 109.719C99.9003 106.258 104.07 98.3678 109.83 94.5Z" fill="#D9D9D9"/>
<path d="M93.88 69.8701C91.01 71.5837 84.41 77.4011 81 86.9618C82.67 82.9857 87.59 74.0009 93.88 69.8701Z" fill="#D9D9D9"/>
<path d="M71.6498 45.5C68.8998 48.957 63.4898 58.3648 63.9098 68.3395C64.0498 64.0026 65.8098 53.3632 71.6498 45.5Z" fill="#D9D9D9"/>
<path d="M53.3297 39.5C51.0297 41.2498 46.0998 46.3537 44.7598 52.7716C45.5498 50.0348 48.3697 43.549 53.3297 39.5Z" fill="#D9D9D9"/>
<path d="M114.088 172.5H16.3799V712.5H114.088V172.5Z" fill="black"/>
<path d="M114.088 172.5H16.3799V712.5H114.088V172.5Z" stroke="black" stroke-width="10"/>
</g>
<defs>
<clipPath id="clip0_77_2">
<rect width="2380" height="736" fill="white" transform="translate(-1438)"/>
</clipPath>
</defs>
</svg>
