<svg width="2380" height="735" viewBox="0 0 2380 735" fill="none" xmlns="http://www.w3.org/2000/svg">
<rect width="2380" height="735" fill="white"/>
<path d="M901.042 147V490.333C901.042 576.858 830.9 647 744.376 647V647C657.851 647 587.709 576.858 587.709 490.333V217V217C587.709 144.387 536.298 81.9359 465.037 67.9861L460 67L429.724 61.9539C409.952 58.6586 389.914 57.2283 369.875 57.6819L328.135 58.6267C302.472 59.2076 276.972 62.8743 252.185 69.5477L237.5 73.5012" stroke="black" stroke-width="110" stroke-miterlimit="1.08239" stroke-linejoin="round"/>
<path d="M905.938 147V147C905.938 113.863 932.801 87 965.938 87H1096.88H1248.65V426.461C1248.65 549.846 1151.59 651.405 1028.33 657V657" stroke="black" stroke-width="120"/>
<path d="M1408.29 32C1417.4 32.0001 1424.79 39.3902 1424.79 48.5059C1424.79 100.141 1382.93 142 1331.3 142H1297.71V32H1408.29Z" fill="black"/>
<path d="M1408.29 32C1417.4 32.0001 1424.79 39.3902 1424.79 48.5059C1424.79 100.141 1382.93 142 1331.3 142H1297.71V32H1408.29Z" fill="black"/>
<path d="M1408.29 32C1417.4 32.0001 1424.79 39.3902 1424.79 48.5059C1424.79 100.141 1382.93 142 1331.3 142H1297.71V32H1408.29Z" stroke="black" stroke-width="10"/>
<path d="M1757.81 717V87H1909.58H2251.04C2284.18 87 2311.04 113.863 2311.04 147V147" stroke="black" stroke-width="120"/>
<path d="M1590.52 32C1585.63 32 1581.67 35.9651 1581.67 40.8564C1581.67 96.7162 1626.95 142 1682.81 142H1708.75V32H1590.52Z" fill="black"/>
<path d="M1590.52 32C1585.63 32 1581.67 35.9651 1581.67 40.8564C1581.67 96.7162 1626.95 142 1682.81 142H1708.75V32H1590.52Z" fill="black"/>
<path d="M1590.52 32C1585.63 32 1581.67 35.9651 1581.67 40.8564C1581.67 96.7162 1626.95 142 1682.81 142H1708.75V32H1590.52Z" stroke="black" stroke-width="10"/>
<path d="M2012.4 167V717" stroke="black" stroke-width="120"/>
<path d="M1958.54 537H2360" stroke="black" stroke-width="120"/>
<path d="M2306.15 167V717.002" stroke="black" stroke-width="120"/>
<path d="M1454.38 32.0088C1508.46 32.7248 1552.08 76.791 1552.08 131.046V132.681C1552.08 137.828 1547.91 142 1542.76 142C1493.95 142 1454.38 102.427 1454.38 53.6113V32.0088Z" fill="black"/>
<path d="M1454.38 32.0088C1508.46 32.7248 1552.08 76.791 1552.08 131.046V132.681C1552.08 137.828 1547.91 142 1542.76 142C1493.95 142 1454.38 102.427 1454.38 53.6113V32.0088Z" fill="black"/>
<path d="M1454.38 32.0088C1508.46 32.7248 1552.08 76.791 1552.08 131.046V132.681C1552.08 137.828 1547.91 142 1542.76 142C1493.95 142 1454.38 102.427 1454.38 53.6113V32.0088Z" stroke="black" stroke-width="10"/>
<path d="M1553 141.5C1543.17 117.333 1510.3 62.3 1457.5 35.5C1479.5 48.8333 1529.4 88.7 1553 141.5Z" fill="#D9D9D9"/>
<path d="M1481 104.695C1488.01 100.985 1506.41 94.5798 1523.94 98.644C1516.21 97.4554 1496.81 97.0014 1481 104.695Z" fill="#D9D9D9"/>
<path d="M1459 85.0862C1466.98 80.8718 1487.94 73.6062 1507.9 78.2585C1499.1 76.8941 1477.01 76.3495 1459 85.0862Z" fill="#D9D9D9"/>
<path d="M1454.28 66.0986C1460.01 62.9803 1475.08 57.5377 1489.54 60.7134C1483.17 59.8093 1467.2 59.6207 1454.28 66.0986Z" fill="#D9D9D9"/>
<path d="M1455 51.4808C1458.38 49.8038 1467.2 46.9864 1475.48 49.1333C1471.82 48.4734 1462.61 48.0191 1455 51.4808Z" fill="#D9D9D9"/>
<path d="M1507 126.533C1513.04 124.065 1528.62 120.316 1542.64 125.065C1536.41 123.465 1520.56 121.519 1507 126.533Z" fill="#D9D9D9"/>
<path d="M1547.83 94C1545.19 95.6203 1539.23 100.932 1536.53 109.219C1537.9 105.758 1542.07 97.8678 1547.83 94Z" fill="#D9D9D9"/>
<path d="M1531.88 69.3701C1529.01 71.0837 1522.41 76.9011 1519 86.4618C1520.67 82.4857 1525.59 73.5009 1531.88 69.3701Z" fill="#D9D9D9"/>
<path d="M1509.65 45C1506.9 48.457 1501.49 57.8648 1501.91 67.8395C1502.05 63.5026 1503.81 52.8632 1509.65 45Z" fill="#D9D9D9"/>
<path d="M1491.33 39C1489.03 40.7498 1484.1 45.8537 1482.76 52.2716C1483.55 49.5348 1486.37 43.049 1491.33 39Z" fill="#D9D9D9"/>
<rect x="1454.38" y="172" width="97.7083" height="540" fill="black"/>
<rect x="1454.38" y="172" width="97.7083" height="540" fill="black"/>
<rect x="1454.38" y="172" width="97.7083" height="540" stroke="black" stroke-width="10"/>
<path d="M288.001 730C230.001 730 178.001 718 132 694C86.6672 669.333 49.3338 631 20.0005 579L141.001 502C158.334 536.667 180.334 562.667 207.001 580C234.334 596.667 264 605 296 605C328 605 353.334 597.667 372.001 583C391.334 568.333 401.001 549 401.001 525C401.001 503 394.001 485 380 471C366 457 348 446 326 438C304.667 429.333 276.334 420.333 241 411C185 396.333 141.334 372.667 110 340C79.3338 307.333 64.0005 265.333 64.0005 214C64.0005 172.667 74.3338 136.333 95.0005 105C115.667 73 144.667 48.3333 182 31C219.334 13.6667 262.334 5 311.001 5C363.667 5 408.334 16 445.001 38C482.334 60 514.667 92.3333 542 135L422.001 209C404.667 181 387.001 161 369.001 149C351.001 136.333 329.334 130 304 130C275.334 130 252 137 234 151C216 165 207.001 183.667 207.001 207C207.001 230.333 216 248 234 260C252 271.333 280.001 283 318.001 295C364.667 309.667 402.001 323.333 430.001 336C458.001 348.667 484.001 370 508.001 400C532.001 429.333 544.001 468.333 544.001 517C544.001 559 533.667 596.333 513.001 629C492.334 661 462.667 686 424.001 704C385.334 721.333 340 730 288.001 730Z" fill="black"/>
<path d="M404.5 224.401L303 129.901C303 129.901 435.5 132.301 463 134.501C490.5 136.701 508 152.401 508 152.401L509.5 154.001C509.5 154.001 509.5 154.501 509.75 154.501C509.968 154.501 510 154.501 510 155.001V155.501L509.531 156.245L532.5 213.901L404.5 224.401Z" fill="white"/>
</svg>
