<svg width="2380" height="736" viewBox="0 0 2380 736" fill="none" xmlns="http://www.w3.org/2000/svg">
<path d="M901.042 147.5V490.833C901.042 577.358 830.9 647.5 744.375 647.5V647.5C657.851 647.5 587.709 577.358 587.709 490.833V217.5V217.5C587.709 144.887 536.298 82.4359 465.037 68.4861L460 67.5L429.723 62.4539C409.952 59.1586 389.914 57.7283 369.874 58.1819L328.134 59.1267C302.471 59.7076 276.971 63.3743 252.184 70.0477L237.5 74.0012" stroke="black" stroke-width="110" stroke-miterlimit="1.08239" stroke-linejoin="round"/>
<path d="M905.938 147.5V147.5C905.938 114.363 932.8 87.5 965.937 87.5H1096.87H1248.65V426.961C1248.65 550.346 1151.59 651.905 1028.33 657.5V657.5" stroke="black" stroke-width="120"/>
<path d="M1408.29 32.5C1417.4 32.5001 1424.79 39.8902 1424.79 49.0059C1424.79 100.641 1382.93 142.5 1331.3 142.5H1297.71V32.5H1408.29Z" fill="black"/>
<path d="M1408.29 32.5C1417.4 32.5001 1424.79 39.8902 1424.79 49.0059C1424.79 100.641 1382.93 142.5 1331.3 142.5H1297.71V32.5H1408.29Z" fill="black"/>
<path d="M1408.29 32.5C1417.4 32.5001 1424.79 39.8902 1424.79 49.0059C1424.79 100.641 1382.93 142.5 1331.3 142.5H1297.71V32.5H1408.29Z" stroke="black" stroke-width="10"/>
<path d="M1757.81 717.5V87.5H1909.58H2251.04C2284.18 87.5 2311.04 114.363 2311.04 147.5V147.5" stroke="black" stroke-width="120"/>
<path d="M1590.52 32.5C1585.63 32.5 1581.67 36.4651 1581.67 41.3564C1581.67 97.2162 1626.95 142.5 1682.81 142.5H1708.75V32.5H1590.52Z" fill="black"/>
<path d="M1590.52 32.5C1585.63 32.5 1581.67 36.4651 1581.67 41.3564C1581.67 97.2162 1626.95 142.5 1682.81 142.5H1708.75V32.5H1590.52Z" fill="black"/>
<path d="M1590.52 32.5C1585.63 32.5 1581.67 36.4651 1581.67 41.3564C1581.67 97.2162 1626.95 142.5 1682.81 142.5H1708.75V32.5H1590.52Z" stroke="black" stroke-width="10"/>
<path d="M2012.4 167.5V717.5" stroke="black" stroke-width="120"/>
<path d="M1958.54 537.5H2360" stroke="black" stroke-width="120"/>
<path d="M2306.15 167.5V717.502" stroke="black" stroke-width="120"/>
<path d="M1454.38 32.5088C1508.46 33.2248 1552.08 77.291 1552.08 131.546V133.181C1552.08 138.328 1547.91 142.5 1542.76 142.5C1493.95 142.5 1454.38 102.927 1454.38 54.1113V32.5088Z" fill="black"/>
<path d="M1454.38 32.5088C1508.46 33.2248 1552.08 77.291 1552.08 131.546V133.181C1552.08 138.328 1547.91 142.5 1542.76 142.5C1493.95 142.5 1454.38 102.927 1454.38 54.1113V32.5088Z" stroke="black" stroke-width="10"/>
<path d="M1553 142C1543.17 117.833 1510.3 62.8 1457.5 36C1479.5 49.3333 1529.4 89.2 1553 142Z" fill="#D9D9D9"/>
<path d="M1481 105.195C1488.01 101.485 1506.41 95.0798 1523.94 99.144C1516.21 97.9554 1496.81 97.5014 1481 105.195Z" fill="#D9D9D9"/>
<path d="M1459 85.5862C1466.98 81.3718 1487.94 74.1062 1507.9 78.7585C1499.1 77.3941 1477.01 76.8495 1459 85.5862Z" fill="#D9D9D9"/>
<path d="M1454.28 66.5986C1460.01 63.4803 1475.08 58.0377 1489.54 61.2134C1483.17 60.3093 1467.2 60.1207 1454.28 66.5986Z" fill="#D9D9D9"/>
<path d="M1455 51.9808C1458.38 50.3038 1467.2 47.4864 1475.48 49.6333C1471.82 48.9734 1462.61 48.5191 1455 51.9808Z" fill="#D9D9D9"/>
<path d="M1507 127.033C1513.04 124.565 1528.62 120.816 1542.64 125.565C1536.41 123.965 1520.56 122.019 1507 127.033Z" fill="#D9D9D9"/>
<path d="M1547.83 94.5C1545.19 96.1203 1539.23 101.432 1536.53 109.719C1537.9 106.258 1542.07 98.3678 1547.83 94.5Z" fill="#D9D9D9"/>
<path d="M1531.88 69.8701C1529.01 71.5837 1522.41 77.4011 1519 86.9618C1520.67 82.9857 1525.59 74.0009 1531.88 69.8701Z" fill="#D9D9D9"/>
<path d="M1509.65 45.5C1506.9 48.957 1501.49 58.3648 1501.91 68.3395C1502.05 64.0026 1503.81 53.3632 1509.65 45.5Z" fill="#D9D9D9"/>
<path d="M1491.33 39.5C1489.03 41.2498 1484.1 46.3537 1482.76 52.7716C1483.55 50.0348 1486.37 43.549 1491.33 39.5Z" fill="#D9D9D9"/>
<rect x="1454.38" y="172.5" width="97.7083" height="540" fill="black"/>
<rect x="1454.38" y="172.5" width="97.7083" height="540" stroke="black" stroke-width="10"/>
<path d="M288.001 730.5C230.001 730.5 178.001 718.5 132 694.5C86.6672 669.833 49.3338 631.5 20.0005 579.5L141.001 502.5C158.334 537.167 180.334 563.167 207.001 580.5C234.334 597.167 264 605.5 296 605.5C328 605.5 353.334 598.167 372.001 583.5C391.334 568.833 401.001 549.5 401.001 525.5C401.001 503.5 394.001 485.5 380 471.5C366 457.5 348 446.5 326 438.5C304.667 429.833 276.334 420.833 241 411.5C185 396.833 141.334 373.167 110 340.5C79.3338 307.833 64.0005 265.833 64.0005 214.5C64.0005 173.167 74.3338 136.833 95.0005 105.5C115.667 73.5 144.667 48.8333 182 31.5C219.334 14.1667 262.334 5.5 311.001 5.5C363.667 5.5 408.334 16.5 445.001 38.5C482.334 60.5 514.667 92.8333 542 135.5L422.001 209.5C404.667 181.5 387.001 161.5 369.001 149.5C351.001 136.833 329.334 130.5 304 130.5C275.334 130.5 252 137.5 234 151.5C216 165.5 207.001 184.167 207.001 207.5C207.001 230.833 216 248.5 234 260.5C252 271.833 280.001 283.5 318.001 295.5C364.667 310.167 402.001 323.833 430.001 336.5C458.001 349.167 484.001 370.5 508.001 400.5C532.001 429.833 544.001 468.833 544.001 517.5C544.001 559.5 533.667 596.833 513.001 629.5C492.334 661.5 462.667 686.5 424.001 704.5C385.334 721.833 340 730.5 288.001 730.5Z" fill="black"/>
<path d="M404.5 224.901L303 130.401C303 130.401 435.5 132.801 463 135.001C490.5 137.201 508 152.901 508 152.901L509.5 154.501C509.5 154.501 509.5 155.001 509.75 155.001C509.968 155.001 510 155.001 510 155.501V156.001L509.531 156.745L532.5 214.401L404.5 224.901Z" fill="white"/>
</svg>
