<svg width="239" height="72" viewBox="0 0 239 72" fill="none" xmlns="http://www.w3.org/2000/svg">
<path d="M28.688 70.748C23.12 70.748 18.128 69.596 13.712 67.292C9.36 64.924 5.776 61.244 2.96 56.252L14.576 48.86C16.24 52.188 18.352 54.684 20.912 56.348C23.536 57.948 26.384 58.748 29.456 58.748C32.528 58.748 34.96 58.044 36.752 56.636C38.608 55.228 39.536 53.372 39.536 51.068C39.536 48.956 38.864 47.228 37.52 45.884C36.176 44.54 34.448 43.484 32.336 42.716C30.288 41.884 27.568 41.02 24.176 40.124C18.8 38.716 14.608 36.444 11.6 33.308C8.656 30.172 7.184 26.14 7.184 21.212C7.184 17.244 8.176 13.756 10.16 10.748C12.144 7.676 14.928 5.308 18.512 3.644C22.096 1.98 26.224 1.148 30.896 1.148C35.952 1.148 40.24 2.204 43.76 4.316C47.344 6.428 50.448 9.532 53.072 13.628L41.552 20.732C39.888 18.044 38.192 16.124 36.464 14.972C34.736 13.756 32.656 13.148 30.224 13.148C27.472 13.148 25.232 13.82 23.504 15.164C21.776 16.508 20.912 18.3 20.912 20.54C20.912 22.78 21.776 24.476 23.504 25.628C25.232 26.716 27.92 27.836 31.568 28.988C36.048 30.396 39.632 31.708 42.32 32.924C45.008 34.14 47.504 36.188 49.808 39.068C52.112 41.884 53.264 45.628 53.264 50.3C53.264 54.332 52.272 57.916 50.288 61.052C48.304 64.124 45.456 66.524 41.744 68.252C38.032 69.916 33.68 70.748 28.688 70.748Z" fill="black"/>
<path d="M91.1041 13.5V47.8333C91.1041 56.4858 84.0899 63.5 75.4374 63.5V63.5C66.785 63.5 59.7708 56.4858 59.7708 47.8333V20.5V20.5C59.7708 17.4624 57.3083 15 54.2708 15H53.8958" stroke="black" stroke-width="11" stroke-miterlimit="1.08239" stroke-linejoin="round"/>
<path d="M53.896 20.5H40.6772L48.5106 9.5H53.896V20.5Z" fill="black"/>
<path d="M91.5938 13.5V13.5C91.5938 10.1863 94.28 7.5 97.5938 7.5H110.687H125.865V41.4461C125.865 53.7846 116.159 63.9405 103.833 64.5V64.5" stroke="black" stroke-width="12"/>
<rect x="130.771" y="2" width="12.7083" height="11" fill="black"/>
<rect x="130.771" y="2" width="12.7083" height="11" fill="black"/>
<rect x="130.771" y="2" width="12.7083" height="11" stroke="black"/>
<path d="M176.781 70.5V7.5H191.958H226.104C229.418 7.5 232.104 10.1863 232.104 13.5V13.5" stroke="black" stroke-width="12"/>
<rect x="-0.5" y="0.5" width="12.7083" height="11" transform="matrix(-1 0 0 1 171.375 1.5)" fill="black"/>
<rect x="-0.5" y="0.5" width="12.7083" height="11" transform="matrix(-1 0 0 1 171.375 1.5)" fill="black"/>
<rect x="-0.5" y="0.5" width="12.7083" height="11" transform="matrix(-1 0 0 1 171.375 1.5)" stroke="black"/>
<path d="M202.24 15.5V70.5" stroke="black" stroke-width="12"/>
<path d="M196.854 52.5H237" stroke="black" stroke-width="12"/>
<path d="M231.615 15.5V70.5002" stroke="black" stroke-width="12"/>
<rect x="146.438" y="2" width="9.77083" height="11" rx="2.5" fill="black"/>
<rect x="146.438" y="2" width="9.77083" height="11" rx="2.5" fill="black"/>
<rect x="146.438" y="2" width="9.77083" height="11" rx="2.5" stroke="black"/>
<rect x="146.438" y="16" width="9.77083" height="54" fill="black"/>
<rect x="146.438" y="16" width="9.77083" height="54" fill="black"/>
<rect x="146.438" y="16" width="9.77083" height="54" stroke="black"/>
</svg>
